<svg width="650" height="220" viewBox="80 -20 650 220" fill="none" xmlns="http://www.w3.org/2000/svg">
  <defs>
    <linearGradient id="cmsBlue" x1="82" y1="34" x2="398" y2="214" gradientUnits="userSpaceOnUse">
      <stop stop-color="#1E6EA6"/>
      <stop offset="1" stop-color="#114D82"/>
    </linearGradient>
    <linearGradient id="cmsGreen" x1="493" y1="58" x2="690" y2="191" gradientUnits="userSpaceOnUse">
      <stop stop-color="#72C974"/>
      <stop offset="1" stop-color="#4EA56A"/>
    </linearGradient>
    <linearGradient id="cmsClock" x1="341" y1="18" x2="454" y2="72" gradientUnits="userSpaceOnUse">
      <stop stop-color="#1E6EA6"/>
      <stop offset="1" stop-color="#58A987"/>
    </linearGradient>
  </defs>

  <path d="M184.45 180.85C167.95 180.85 153.15 177.25 140.05 170.05C127.15 162.65 116.95 152.35 109.45 139.15C102.15 125.75 98.5 110.35 98.5 92.95C98.5 75.55 102.15 60.25 109.45 47.05C116.95 33.65 127.15 23.35 140.05 16.15C153.15 8.75 167.95 5.05 184.45 5.05C198.65 5.05 211.65 7.55 223.45 12.55C235.25 17.55 245.25 24.75 253.45 34.15L226.15 59.35C214.55 46.15 200.55 39.55 184.15 39.55C174.55 39.55 165.95 41.75 158.35 46.15C150.75 50.35 144.8 56.35 140.5 64.15C136.4 71.95 134.35 81.55 134.35 92.95C134.35 104.35 136.4 113.95 140.5 121.75C144.8 129.55 150.75 135.65 158.35 140.05C165.95 144.25 174.55 146.35 184.15 146.35C200.55 146.35 214.55 139.75 226.15 126.55L253.45 151.75C245.25 161.15 235.25 168.35 223.45 173.35C211.65 178.35 198.65 180.85 184.45 180.85Z" fill="url(#cmsBlue)"/>
  <path d="M283 8.35H322.6L404.05 143.65L483.8 8.35H523.4L523.7 178.1H487.85L487.55 77.95L439.1 159.05H367L318.55 80.35V178.1H283V8.35Z" fill="url(#cmsBlue)"/>
  <path d="M619.35 180.85C605.55 180.85 592.15 179.05 579.15 175.45C566.15 171.85 555.65 167.15 547.65 161.35L561.8 129.85C569.5 135.25 578.7 139.55 589.4 142.75C600.1 145.95 610.8 147.55 621.5 147.55C633.4 147.55 642.2 145.8 647.9 142.3C653.6 138.6 656.45 133.8 656.45 127.9C656.45 123.5 654.7 119.95 651.2 117.25C647.9 114.35 643.55 112.05 638.15 110.35C632.95 108.65 625.8 106.75 616.7 104.65C602.7 101.25 591.2 97.85 582.2 94.45C573.2 91.05 565.45 85.55 558.95 77.95C552.65 70.35 549.5 60.25 549.5 47.65C549.5 36.65 552.45 26.75 558.35 17.95C564.45 8.95 573.5 1.85 585.5 -3.35C597.5 -8.55 612.15 -11.15 629.45 -11.15C641.55 -11.15 653.45 -9.7 665.15 -6.8C676.85 -3.9 686.95 0.25 695.45 5.65L682.6 37.45C665.4 27.65 648.2 22.75 631 22.75C619.3 22.75 610.6 24.65 604.9 28.45C599.4 32.25 596.65 37.25 596.65 43.45C596.65 49.65 599.85 54.25 606.25 57.25C612.85 60.05 622.85 63.05 636.25 66.25C650.25 69.65 661.75 73.05 670.75 76.45C679.75 79.85 687.4 85.25 693.7 92.65C700.2 100.05 703.45 110.05 703.45 122.65C703.45 133.45 700.4 143.35 694.3 152.35C688.2 161.15 679.05 168.15 666.85 173.35C654.85 178.35 639.05 180.85 619.35 180.85Z" fill="url(#cmsGreen)"/>
  <path d="M569.5 104.35L612.55 146.2L699.85 60.4" stroke="url(#cmsGreen)" stroke-width="20" stroke-linecap="round" stroke-linejoin="round"/>
  <path d="M354.5 10C362.8 -2.3 377.5 -10.5 394.1 -10.5C410.7 -10.5 425.3 -2.3 433.6 10" stroke="url(#cmsClock)" stroke-width="8" stroke-linecap="round"/>
  <path d="M394.1 0V38" stroke="url(#cmsClock)" stroke-width="8" stroke-linecap="round"/>
  <circle cx="394.1" cy="57.5" r="12.5" fill="url(#cmsClock)"/>
</svg>
